HIERARCHY
ROOT Hips
{
	OFFSET 0.053599 88.859886 3.107447
	CHANNELS 6 Xposition Yposition Zposition Zrotation Yrotation Xrotation 
	JOINT Spine
	{
		OFFSET -0.000000 8.814246 -2.080107
		CHANNELS 3 Zrotation Yrotation Xrotation
		JOINT Spine1
		{
			OFFSET 0.000000 8.844141 0.000000
			CHANNELS 3 Zrotation Yrotation Xrotation
			JOINT Spine2
			{
				OFFSET -0.000000 11.682268 0.000000
				CHANNELS 3 Zrotation Yrotation Xrotation
				JOINT Spine3
				{
					OFFSET 0.000000 11.746700 0.000000
					CHANNELS 3 Zrotation Yrotation Xrotation
					JOINT Neck
					{
						OFFSET -0.000000 17.658264 -0.000000
						CHANNELS 3 Zrotation Yrotation Xrotation
						JOINT Neck1
						{
							OFFSET -0.000000 5.101515 -0.000000
							CHANNELS 3 Zrotation Yrotation Xrotation
							JOINT Head
							{
								OFFSET 0.000000 5.101515 0.000000
								CHANNELS 3 Zrotation Yrotation Xrotation
								JOINT HeadEnd
								{
									OFFSET 0.000000 11.655085 0.000000
									CHANNELS 3 Zrotation Yrotation Xrotation
									End Site
									{
										OFFSET 0.000000 0.000000 0.000000
									}
								}
							}
						}
					}
					JOINT RightShoulder
					{
						OFFSET -2.625389 11.175210 0.000000
						CHANNELS 3 Zrotation Yrotation Xrotation
						JOINT RightArm
						{
							OFFSET -0.000000 10.434715 -0.000000
							CHANNELS 3 Zrotation Yrotation Xrotation
							JOINT RightForeArm
							{
								OFFSET -0.000000 29.628420 0.000000
								CHANNELS 3 Zrotation Yrotation Xrotation
								JOINT RightHand
								{
									OFFSET -0.000000 22.857611 0.000000
									CHANNELS 3 Zrotation Yrotation Xrotation
									JOINT RightHandThumb1
									{
										OFFSET -2.867323 3.959563 2.944291
										CHANNELS 3 Zrotation Yrotation Xrotation
										JOINT RightHandThumb2
										{
											OFFSET 0.000000 3.350399 0.000000
											CHANNELS 3 Zrotation Yrotation Xrotation
											JOINT RightHandThumb3
											{
												OFFSET 0.000000 3.756509 -0.000000
												CHANNELS 3 Zrotation Yrotation Xrotation
												JOINT RightHandThumb4
												{
													OFFSET 0.000000 3.147345 0.000000
													CHANNELS 3 Zrotation Yrotation Xrotation
													End Site
													{
														OFFSET 0.000000 0.000000 0.000000
													}
												}
											}
										}
									}
									JOINT RightHandIndex1
									{
										OFFSET -0.086752 10.030893 2.345280
										CHANNELS 3 Zrotation Yrotation Xrotation
										JOINT RightHandIndex2
										{
											OFFSET -0.000000 4.061090 0.000000
											CHANNELS 3 Zrotation Yrotation Xrotation
											JOINT RightHandIndex3
											{
												OFFSET -0.000000 3.248873 0.000000
												CHANNELS 3 Zrotation Yrotation Xrotation
												JOINT RightHandIndex4
												{
													OFFSET 0.000000 2.639709 -0.000000
													CHANNELS 3 Zrotation Yrotation Xrotation
													End Site
													{
														OFFSET 0.000000 0.000000 0.000000
													}
												}
											}
										}
									}
									JOINT RightHandMiddle1
									{
										OFFSET 0.104102 9.502952 0.006768
										CHANNELS 3 Zrotation Yrotation Xrotation
										JOINT RightHandMiddle2
										{
											OFFSET 0.000000 4.568727 0.000000
											CHANNELS 3 Zrotation Yrotation Xrotation
											JOINT RightHandMiddle3
											{
												OFFSET 0.000000 3.654981 -0.000000
												CHANNELS 3 Zrotation Yrotation Xrotation
												JOINT RightHandMiddle4
												{
													OFFSET -0.000000 2.741236 -0.000000
													CHANNELS 3 Zrotation Yrotation Xrotation
													End Site
													{
														OFFSET 0.000000 0.000000 0.000000
													}
												}
											}
										}
									}
									JOINT RightHandRing1
									{
										OFFSET 0.086752 8.921708 -2.267442
										CHANNELS 3 Zrotation Yrotation Xrotation
										JOINT RightHandRing2
										{
											OFFSET -0.000000 4.061090 0.000000
											CHANNELS 3 Zrotation Yrotation Xrotation
											JOINT RightHandRing3
											{
												OFFSET 0.000000 3.654981 -0.000000
												CHANNELS 3 Zrotation Yrotation Xrotation
												JOINT RightHandRing4
												{
													OFFSET 0.000000 2.741236 -0.000000
													CHANNELS 3 Zrotation Yrotation Xrotation
													End Site
													{
														OFFSET 0.000000 0.000000 0.000000
													}
												}
											}
										}
									}
									JOINT RightHandPinky1
									{
										OFFSET -0.173504 7.976997 -4.467199
										CHANNELS 3 Zrotation Yrotation Xrotation
										JOINT RightHandPinky2
										{
											OFFSET 0.000000 3.350399 -0.000000
											CHANNELS 3 Zrotation Yrotation Xrotation
											JOINT RightHandPinky3
											{
												OFFSET -0.000000 2.842763 0.000000
												CHANNELS 3 Zrotation Yrotation Xrotation
												JOINT RightHandPinky4
												{
													OFFSET -0.000000 2.639709 0.000000
													CHANNELS 3 Zrotation Yrotation Xrotation
													End Site
													{
														OFFSET 0.000000 0.000000 0.000000
													}
												}
											}
										}
									}
									JOINT RightForeArmEnd
									{
										OFFSET 0.000000 0.000000 0.000000
										CHANNELS 3 Zrotation Yrotation Xrotation
										End Site
										{
											OFFSET 0.000000 0.000000 0.000000
										}
									}
								}
								JOINT RightArmEnd
								{
									OFFSET 0.000000 0.000000 0.000000
									CHANNELS 3 Zrotation Yrotation Xrotation
									End Site
									{
										OFFSET 0.000000 0.000000 0.000000
									}
								}
							}
						}
					}
					JOINT LeftShoulder
					{
						OFFSET 2.625389 11.175210 0.000000
						CHANNELS 3 Zrotation Yrotation Xrotation
						JOINT LeftArm
						{
							OFFSET 0.000000 10.813635 -0.000000
							CHANNELS 3 Zrotation Yrotation Xrotation
							JOINT LeftForeArm
							{
								OFFSET 0.000000 28.724781 0.000000
								CHANNELS 3 Zrotation Yrotation Xrotation
								JOINT LeftHand
								{
									OFFSET 0.644384 25.716167 -0.328871
									CHANNELS 3 Zrotation Yrotation Xrotation
									JOINT LeftHandThumb1
									{
										OFFSET 2.867323 3.959563 2.944291
										CHANNELS 3 Zrotation Yrotation Xrotation
										JOINT LeftHandThumb2
										{
											OFFSET 0.000000 3.350399 0.000000
											CHANNELS 3 Zrotation Yrotation Xrotation
											JOINT LeftHandThumb3
											{
												OFFSET -0.000000 3.756509 0.000000
												CHANNELS 3 Zrotation Yrotation Xrotation
												JOINT LeftHandThumb4
												{
													OFFSET -0.000000 3.100000 0.000000
													CHANNELS 3 Zrotation Yrotation Xrotation
													End Site
													{
														OFFSET 0.000000 0.000000 0.000000
													}
												}
											}
										}
									}
									JOINT LeftHandIndex1
									{
										OFFSET 0.086752 10.030893 2.345280
										CHANNELS 3 Zrotation Yrotation Xrotation
										JOINT LeftHandIndex2
										{
											OFFSET -0.000000 4.061090 -0.000000
											CHANNELS 3 Zrotation Yrotation Xrotation
											JOINT LeftHandIndex3
											{
												OFFSET 0.000000 3.248873 -0.000000
												CHANNELS 3 Zrotation Yrotation Xrotation
												JOINT LeftHandIndex4
												{
													OFFSET 0.000000 2.639709 -0.000000
													CHANNELS 3 Zrotation Yrotation Xrotation
													End Site
													{
														OFFSET 0.000000 0.000000 0.000000
													}
												}
											}
										}
									}
									JOINT LeftHandMiddle1
									{
										OFFSET -0.104102 9.502952 0.006768
										CHANNELS 3 Zrotation Yrotation Xrotation
										JOINT LeftHandMiddle2
										{
											OFFSET -0.000000 4.568727 -0.000000
											CHANNELS 3 Zrotation Yrotation Xrotation
											JOINT LeftHandMiddle3
											{
												OFFSET 0.000000 3.654981 0.000000
												CHANNELS 3 Zrotation Yrotation Xrotation
												JOINT LeftHandMiddle4
												{
													OFFSET 0.000000 2.741236 -0.000000
													CHANNELS 3 Zrotation Yrotation Xrotation
													End Site
													{
														OFFSET 0.000000 0.000000 0.000000
													}
												}
											}
										}
									}
									JOINT LeftHandRing1
									{
										OFFSET -0.086752 8.921708 -2.267442
										CHANNELS 3 Zrotation Yrotation Xrotation
										JOINT LeftHandRing2
										{
											OFFSET 0.000000 4.061090 0.000000
											CHANNELS 3 Zrotation Yrotation Xrotation
											JOINT LeftHandRing3
											{
												OFFSET 0.000000 3.654981 0.000000
												CHANNELS 3 Zrotation Yrotation Xrotation
												JOINT LeftHandRing4
												{
													OFFSET 0.000000 2.741236 0.000000
													CHANNELS 3 Zrotation Yrotation Xrotation
													End Site
													{
														OFFSET 0.000000 0.000000 0.000000
													}
												}
											}
										}
									}
									JOINT LeftHandPinky1
									{
										OFFSET 0.173504 7.976997 -4.467199
										CHANNELS 3 Zrotation Yrotation Xrotation
										JOINT LeftHandPinky2
										{
											OFFSET -0.000000 3.350399 -0.000000
											CHANNELS 3 Zrotation Yrotation Xrotation
											JOINT LeftHandPinky3
											{
												OFFSET 0.000000 2.842763 0.000000
												CHANNELS 3 Zrotation Yrotation Xrotation
												JOINT LeftHandPinky4
												{
													OFFSET -0.000000 2.639709 -0.000000
													CHANNELS 3 Zrotation Yrotation Xrotation
													End Site
													{
														OFFSET 0.000000 0.000000 0.000000
													}
												}
											}
										}
									}
									JOINT LeftForeArmEnd
									{
										OFFSET 0.000000 0.000000 0.000000
										CHANNELS 3 Zrotation Yrotation Xrotation
										End Site
										{
											OFFSET 0.000000 0.000000 0.000000
										}
									}
								}
								JOINT LeftArmEnd
								{
									OFFSET 0.000000 0.000000 0.000000
									CHANNELS 3 Zrotation Yrotation Xrotation
									End Site
									{
										OFFSET 0.000000 0.000000 0.000000
									}
								}
							}
						}
					}
				}
			}
		}
	}
	JOINT RightUpLeg
	{
		OFFSET -11.289943 0.000000 0.000000
		CHANNELS 3 Zrotation Yrotation Xrotation
		JOINT RightLeg
		{
			OFFSET 0.000000 -38.200325 0.000000
			CHANNELS 3 Zrotation Yrotation Xrotation
			JOINT RightFoot
			{
				OFFSET -0.000000 -39.900856 -0.000000
				CHANNELS 3 Zrotation Yrotation Xrotation
				JOINT RightToeBase
				{
					OFFSET 0.000000 0.000000 15.261641
					CHANNELS 3 Zrotation Yrotation Xrotation
					JOINT RightToeBaseEnd
					{
						OFFSET 0.000000 0.000000 7.370709
						CHANNELS 3 Zrotation Yrotation Xrotation
						End Site
						{
							OFFSET 0.000000 0.000000 0.000000
						}
					}
				}
				JOINT RightLegEnd
				{
					OFFSET 0.000000 0.000000 0.000000
					CHANNELS 3 Zrotation Yrotation Xrotation
					End Site
					{
						OFFSET 0.000000 0.000000 0.000000
					}
				}
			}
			JOINT RightUpLegEnd
			{
				OFFSET 0.000000 0.000000 0.000000
				CHANNELS 3 Zrotation Yrotation Xrotation
				End Site
				{
					OFFSET 0.000000 0.000000 0.000000
				}
			}
		}
	}
	JOINT LeftUpLeg
	{
		OFFSET 11.315661 -0.000000 0.000000
		CHANNELS 3 Zrotation Yrotation Xrotation
		JOINT LeftLeg
		{
			OFFSET -0.000000 -38.200325 -0.000000
			CHANNELS 3 Zrotation Yrotation Xrotation
			JOINT LeftFoot
			{
				OFFSET 0.000000 -39.900856 -0.000000
				CHANNELS 3 Zrotation Yrotation Xrotation
				JOINT LeftToeBase
				{
					OFFSET -0.000000 -0.000000 15.261641
					CHANNELS 3 Zrotation Yrotation Xrotation
					JOINT LeftToeBaseEnd
					{
						OFFSET 0.000000 -0.000000 7.539996
						CHANNELS 3 Zrotation Yrotation Xrotation
						End Site
						{
							OFFSET 0.000000 0.000000 0.000000
						}
					}
				}
				JOINT LeftLegEnd
				{
					OFFSET 0.000000 0.000000 0.000000
					CHANNELS 3 Zrotation Yrotation Xrotation
					End Site
					{
						OFFSET 0.000000 0.000000 0.000000
					}
				}
			}
			JOINT LeftUpLegEnd
			{
				OFFSET 0.000000 0.000000 0.000000
				CHANNELS 3 Zrotation Yrotation Xrotation
				End Site
				{
					OFFSET 0.000000 0.000000 0.000000
				}
			}
		}
	}
}
MOTION
Frames: 5
Frame Time: 0.016667
0.422413 88.822433 3.090767 -0.365099 -2.252984 -9.853380 1.014750 0.016752 7.110514 -0.662961 0.200700 3.011075 0.700104 -1.272196 3.393330 -0.616180 0.015361 4.327933 0.825528 1.283020 4.400362 0.462952 1.910448 -3.287828 -0.761872 -0.939132 -19.549015 0.000000 0.000000 0.000000 93.383614 -0.433896 9.644876 66.381386 -26.502567 3.896939 0.314006 16.879868 21.993517 5.387021 11.807189 -6.434114 19.044912 30.403111 62.895706 -7.497275 -10.586346 -18.052748 -5.565077 -6.999553 -12.484183 0.000000 0.000000 0.000000 6.915297 -10.203026 2.333243 7.617330 0.505701 0.723712 7.378671 0.065501 0.744494 0.000000 0.000000 0.000000 6.486405 -4.595967 0.704914 6.177042 0.503642 0.259523 6.681272 0.010129 0.232689 0.000000 0.000000 0.000000 7.525206 3.232757 0.181410 6.479751 -0.989002 -0.455081 6.404920 -0.014706 -0.305251 0.000000 0.000000 0.000000 6.939503 11.676120 -1.515223 6.010741 -1.950598 -1.362089 5.894512 0.016963 -1.151248 0.000000 0.000000 0.000000 0.000000 0.000000 0.000000 0.000000 0.000000 0.000000 -90.057190 0.147564 5.528637 -72.202209 15.040648 -6.090713 -0.695500 -11.645359 46.510933 7.471964 -12.197962 -14.326346 -16.557724 -31.246092 65.381317 4.735756 5.660732 -10.300318 3.323515 3.842273 -7.299671 0.000000 0.000000 0.000000 8.410971 -10.586875 11.568549 -1.060181 0.490040 -0.677217 -0.985427 0.037719 -0.668715 0.000000 0.000000 0.000000 7.898276 -5.117010 7.157705 -0.890262 0.489842 -0.283338 -0.981098 0.002508 -0.226854 0.000000 0.000000 0.000000 4.692935 3.509612 2.217450 -2.160745 -1.006745 0.501891 -2.199753 -0.015467 0.395969 0.000000 0.000000 0.000000 0.650805 13.162399 -3.406566 -3.922295 -1.929058 1.751387 -3.561259 0.086696 1.563542 0.000000 0.000000 0.000000 0.000000 0.000000 0.000000 0.000000 0.000000 0.000000 -0.138869 -8.340515 13.513372 -0.062877 -0.690348 5.199285 -3.072923 -6.901536 17.709909 -0.779685 0.800820 -18.506840 0.000000 0.000000 0.000000 0.000000 0.000000 0.000000 0.000000 0.000000 0.000000 -1.166674 -5.355579 9.196931 0.065188 0.295622 9.704852 3.750054 0.370477 16.788309 0.338460 -0.458537 -20.688906 0.000000 0.000000 0.000000 0.000000 0.000000 0.000000 0.000000 0.000000 0.000000 
0.423709 88.820930 3.095749 -0.379264 -2.301569 -9.875320 1.021516 0.013796 7.113667 -0.667910 0.200162 3.026259 0.708651 -1.277691 3.414216 -0.614466 0.012867 4.329064 0.842176 1.292123 4.426883 0.471153 1.929698 -3.283172 -0.765697 -0.944554 -19.555311 0.000000 0.000000 0.000000 93.403542 -0.431891 9.667958 66.307045 -26.544342 4.004641 0.312614 16.936617 21.971138 5.484129 11.794323 -6.389655 19.067390 30.395845 62.875160 -7.520637 -10.627119 -18.119146 -5.584296 -7.027484 -12.530269 0.000000 0.000000 0.000000 7.014422 -10.224178 2.327065 7.660395 0.504384 0.738589 7.421523 0.064028 0.757647 0.000000 0.000000 0.000000 6.581926 -4.613017 0.705775 6.226351 0.503165 0.264511 6.729634 0.009757 0.237246 0.000000 0.000000 0.000000 7.644793 3.214610 0.199345 6.544527 -0.989091 -0.459989 6.462382 -0.014491 -0.309172 0.000000 0.000000 0.000000 7.088680 11.658895 -1.484002 6.088109 -1.952133 -1.370930 5.968451 0.015693 -1.157310 0.000000 0.000000 0.000000 0.000000 0.000000 0.000000 0.000000 0.000000 0.000000 -90.097755 0.155439 5.525889 -72.119087 15.061399 -6.018832 -0.698076 -11.636944 46.519196 7.245003 -12.277104 -14.319469 -16.653133 -31.208687 65.273178 4.866765 5.852536 -10.615950 3.420177 3.968574 -7.524162 0.000000 0.000000 0.000000 7.685459 -10.457291 11.328727 -1.089721 0.488546 -0.690073 -1.016186 0.036149 -0.680496 0.000000 0.000000 0.000000 7.173494 -4.991273 6.995001 -0.921556 0.489065 -0.288342 -1.015208 0.001952 -0.231570 0.000000 0.000000 0.000000 3.939827 3.636099 2.160417 -2.233084 -1.006279 0.509387 -2.265604 -0.014840 0.401953 0.000000 0.000000 0.000000 -0.039021 13.272078 -3.371600 -4.022190 -1.927981 1.770678 -3.656813 0.087806 1.581358 0.000000 0.000000 0.000000 0.000000 0.000000 0.000000 0.000000 0.000000 0.000000 -0.127991 -8.331839 13.544394 -0.063388 -0.692559 5.179776 -3.074686 -6.873924 17.721544 -0.778534 0.804209 -18.505796 0.000000 0.000000 0.000000 0.000000 0.000000 0.000000 0.000000 0.000000 0.000000 -1.154066 -5.342978 9.219595 0.064752 0.294528 9.707439 3.749839 0.400358 16.769859 0.338769 -0.455149 -20.680023 0.000000 0.000000 0.000000 0.000000 0.000000 0.000000 0.000000 0.000000 0.000000 
0.424442 88.819183 3.100379 -0.394132 -2.340607 -9.896380 1.027884 0.010815 7.117502 -0.672727 0.199322 3.041587 0.717288 -1.283862 3.435233 -0.612888 0.009866 4.327507 0.864120 1.298539 4.449247 0.479270 1.946432 -3.283027 -0.769124 -0.949109 -19.559603 0.000000 0.000000 0.000000 93.421600 -0.429842 9.695463 66.229172 -26.592999 4.119391 0.311451 16.987673 21.955872 5.574448 11.774931 -6.347400 19.089991 30.388590 62.855099 -7.543771 -10.667397 -18.184536 -5.603464 -7.054992 -12.575611 0.000000 0.000000 0.000000 7.113598 -10.245583 2.325197 7.699667 0.502714 0.755851 7.460144 0.062156 0.772887 0.000000 0.000000 0.000000 6.675423 -4.629868 0.710131 6.271782 0.502487 0.270469 6.773890 0.009186 0.242663 0.000000 0.000000 0.000000 7.759728 3.197351 0.218799 6.605092 -0.988904 -0.466311 6.515337 -0.014037 -0.314173 0.000000 0.000000 0.000000 7.232399 11.642115 -1.454127 6.161433 -1.952899 -1.384032 6.037410 0.015128 -1.166676 0.000000 0.000000 0.000000 0.000000 0.000000 0.000000 0.000000 0.000000 0.000000 -90.136063 0.162301 5.527864 -72.034195 15.077479 -5.936256 -0.702490 -11.631401 46.522293 6.971236 -12.410141 -14.310239 -16.765085 -31.164892 65.146828 5.019064 6.076983 -10.984030 3.532964 4.116614 -7.786125 0.000000 0.000000 0.000000 6.830232 -10.301772 11.038806 -1.131715 0.486569 -0.704814 -1.060130 0.034050 -0.693940 0.000000 0.000000 0.000000 6.318902 -4.841166 6.795357 -0.963787 0.488014 -0.294302 -1.061905 0.001114 -0.237119 0.000000 0.000000 0.000000 3.055926 3.784166 2.082483 -2.318600 -1.005401 0.518435 -2.344404 -0.013848 0.409221 0.000000 0.000000 0.000000 -0.849913 13.397305 -3.343206 -4.137250 -1.925759 1.795972 -3.767447 0.089914 1.604288 0.000000 0.000000 0.000000 0.000000 0.000000 0.000000 0.000000 0.000000 0.000000 -0.115796 -8.325531 13.578166 -0.063860 -0.694643 5.158485 -3.075767 -6.855057 17.731630 -0.777701 0.807581 -18.505146 0.000000 0.000000 0.000000 0.000000 0.000000 0.000000 0.000000 0.000000 0.000000 -1.141684 -5.334391 9.239768 0.064310 0.293425 9.711887 3.750473 0.424461 16.749403 0.338836 -0.451372 -20.669701 0.000000 0.000000 0.000000 0.000000 0.000000 0.000000 0.000000 0.000000 0.000000 
0.424699 88.817268 3.104896 -0.409155 -2.370385 -9.916672 1.033131 0.007863 7.121603 -0.677439 0.198172 3.057112 0.725763 -1.291341 3.456093 -0.611116 0.006123 4.323979 0.889885 1.303645 4.467342 0.487333 1.961757 -3.287067 -0.772588 -0.952910 -19.561520 0.000000 0.000000 0.000000 93.437988 -0.427924 9.726145 66.147224 -26.650419 4.237231 0.310148 17.033751 21.951307 5.657633 11.747745 -6.303020 19.112440 30.381403 62.835701 -7.566479 -10.706696 -18.248293 -5.622319 -7.081815 -12.619735 0.000000 0.000000 0.000000 7.213547 -10.266883 2.326743 7.735074 0.500769 0.774840 7.494489 0.059978 0.789656 0.000000 0.000000 0.000000 6.767842 -4.646458 0.717924 6.312933 0.501667 0.277190 6.813803 0.008460 0.248742 0.000000 0.000000 0.000000 7.870800 3.180717 0.240247 6.661016 -0.988501 -0.473750 6.563506 -0.013397 -0.320001 0.000000 0.000000 0.000000 7.370708 11.625497 -1.424582 6.230009 -1.953023 -1.400515 6.100930 0.015158 -1.178747 0.000000 0.000000 0.000000 0.000000 0.000000 0.000000 0.000000 0.000000 0.000000 -90.171822 0.168172 5.534380 -71.949959 15.091770 -5.848044 -0.708597 -11.628922 46.523167 6.658754 -12.588045 -14.294785 -16.891869 -31.115534 65.004578 5.189664 6.330569 -11.398288 3.659815 4.284060 -8.080987 0.000000 0.000000 0.000000 5.859354 -10.122683 10.703512 -1.194218 0.484197 -0.720796 -1.125052 0.031524 -0.708425 0.000000 0.000000 0.000000 5.349892 -4.669127 6.562496 -1.025064 0.486743 -0.300966 -1.129034 0.000035 -0.243279 0.000000 0.000000 0.000000 2.057723 3.950965 1.986415 -2.424939 -1.004174 0.528712 -2.443831 -0.012542 0.417500 0.000000 0.000000 0.000000 -1.767138 13.535353 -3.319010 -4.273588 -1.922526 1.826172 -3.899256 0.092937 1.631370 0.000000 0.000000 0.000000 0.000000 0.000000 0.000000 0.000000 0.000000 0.000000 -0.103138 -8.322256 13.614525 -0.064300 -0.696607 5.135629 -3.075970 -6.844242 17.739807 -0.777274 0.811010 -18.504719 0.000000 0.000000 0.000000 0.000000 0.000000 0.000000 0.000000 0.000000 0.000000 -1.130156 -5.329376 9.257708 0.063858 0.292327 9.718166 3.751857 0.442231 16.727068 0.338588 -0.447304 -20.658255 0.000000 0.000000 0.000000 0.000000 0.000000 0.000000 0.000000 0.000000 0.000000 
0.424574 88.815224 3.109603 -0.424050 -2.391336 -9.936331 1.036997 0.004920 7.125477 -0.681993 0.196650 3.072523 0.733744 -1.300576 3.476583 -0.609079 0.001364 4.319618 0.917976 1.308374 4.481967 0.495151 1.976399 -3.294302 -0.776339 -0.956114 -19.561495 0.000000 0.000000 0.000000 93.452087 -0.426152 9.758242 66.061958 -26.717087 4.355801 0.308348 17.073893 21.958567 5.733895 11.713039 -6.254210 19.134502 30.374308 62.816925 -7.588817 -10.744800 -18.310337 -5.640796 -7.107821 -12.662478 0.000000 0.000000 0.000000 7.315100 -10.287845 2.329713 7.767868 0.498654 0.794719 7.525794 0.057613 0.807223 0.000000 0.000000 0.000000 6.860363 -4.662851 0.727908 6.350760 0.500772 0.284363 6.850477 0.007636 0.255199 0.000000 0.000000 0.000000 7.979370 3.164350 0.263155 6.713037 -0.987961 -0.481850 6.607803 -0.012644 -0.326308 0.000000 0.000000 0.000000 7.503910 11.608733 -1.395033 6.294153 -1.952692 -1.419116 6.159546 0.015611 -1.192543 0.000000 0.000000 0.000000 0.000000 0.000000 0.000000 0.000000 0.000000 0.000000 -90.204597 0.173053 5.545082 -71.868835 15.107893 -5.758063 -0.715769 -11.626846 46.522110 6.316700 -12.798946 -14.269749 -17.031116 -31.061705 64.849411 5.374811 6.608520 -11.850587 3.798056 4.467699 -8.402658 0.000000 0.000000 0.000000 4.791276 -9.923552 10.329018 -1.289284 0.481604 -0.737186 -1.222700 0.028754 -0.723171 0.000000 0.000000 0.000000 4.286620 -4.478642 6.301312 -1.117632 0.485341 -0.308005 -1.228428 -0.001199 -0.249750 0.000000 0.000000 0.000000 0.966176 4.133046 1.876063 -2.564000 -1.002697 0.539798 -2.575791 -0.011005 0.426432 0.000000 0.000000 0.000000 -2.772076 13.683215 -3.295521 -4.440717 -1.918500 1.859701 -4.061876 0.096703 1.661178 0.000000 0.000000 0.000000 0.000000 0.000000 0.000000 0.000000 0.000000 0.000000 -0.090515 -8.322824 13.653210 -0.064725 -0.698458 5.111621 -3.075253 -6.840638 17.745924 -0.777271 0.814565 -18.504456 0.000000 0.000000 0.000000 0.000000 0.000000 0.000000 0.000000 0.000000 0.000000 -1.119606 -5.327718 9.273828 0.063412 0.291286 9.726219 3.753471 0.453341 16.702812 0.338045 -0.443091 -20.645943 0.000000 0.000000 0.000000 0.000000 0.000000 0.000000 0.000000 0.000000 0.000000 
